<svg xmlns="http://www.w3.org/2000/svg" data-name="Layer 1" width="500" height="350" viewBox="0 0 500 350">
  <rect x="130" y="70" width="40" height="230" rx="5" fill="#ffffff" opacity="0.3"/>
  <rect x="190" y="140" width="40" height="160" rx="5" fill="#ffffff" opacity="0.5"/>
  <rect x="250" y="100" width="40" height="200" rx="5" fill="#0abab5" opacity="0.8"/>
  <rect x="310" y="30" width="40" height="270" rx="5" fill="#0abab5"/>
  
  <!-- Person -->
  <g transform="translate(60, 150)">
    <!-- Body -->
    <rect x="0" y="30" width="40" height="60" rx="10" fill="#ffffff"/>
    
    <!-- Head -->
    <circle cx="20" cy="15" r="15" fill="#ffffff"/>
    
    <!-- Arms -->
    <rect x="-10" y="40" width="30" height="10" rx="5" fill="#ffffff"/>
    <rect x="20" y="40" width="50" height="10" rx="5" fill="#ffffff"/>
    
    <!-- Legs -->
    <rect x="5" y="90" width="10" height="35" rx="5" fill="#ffffff"/>
    <rect x="25" y="90" width="10" height="35" rx="5" fill="#ffffff"/>
    
    <!-- Pointing hand -->
    <circle cx="70" cy="40" r="8" fill="#ffffff"/>
  </g>
  
  <!-- Growth arrow -->
  <path d="M130,250 Q200,220 250,200 Q290,180 350,80" stroke="#0abab5" stroke-width="4" fill="none" stroke-linecap="round" stroke-dasharray="5,8"/>
  
  <!-- Decorative elements -->
  <circle cx="130" cy="250" r="5" fill="#0abab5"/>
  <circle cx="350" cy="80" r="5" fill="#0abab5"/>
  <circle cx="250" cy="200" r="5" fill="#0abab5"/>
  
  <!-- Background elements -->
  <circle cx="40" cy="40" r="15" fill="#0abab5" opacity="0.15"/>
  <circle cx="420" cy="280" r="20" fill="#0abab5" opacity="0.15"/>
  <circle cx="370" cy="30" r="10" fill="#0abab5" opacity="0.15"/>
  <circle cx="470" cy="150" r="15" fill="#0abab5" opacity="0.15"/>
  <circle cx="100" cy="320" r="12" fill="#0abab5" opacity="0.15"/>
</svg> 