<svg xmlns="http://www.w3.org/2000/svg" data-name="Layer 1" width="786.81995" height="572.25773" viewBox="0 0 786.81995 572.25773" xmlns:xlink="http://www.w3.org/1999/xlink">
  <circle cx="458.32136" cy="99.00598" r="31.2479" fill="#0abab5" opacity="0.4"/>
  <path d="M413.397,147.12237s-17.12751,31.2479,12.41091,62.49581l-63.40873,172.29248L337.76414,371.7971l63.40873-146.04167-31.70437-23.6731Z" fill="#ffb8b8"/>
  <path d="M379.03243,313.44566,334.6936,368.61c-4.92323,3.98248-12.6832,6.38351-16.81791,3.92616-9.2869-5.50595-11.23589-8.292-5.04355-21.48,6.19234-13.18808,3.67433-15.19311,3.67433-15.19311l-.22717-.50635,46.8-60.82,19.23,16.54Z" fill="#0abab5"/>
  <polygon points="364.729 77.283 381.4 113.642 427.054 115.468 413.442 70.727 364.729 77.283" fill="#ffb8b8"/>
  <circle cx="401.32681" cy="61.98519" r="34.99657" fill="#ffb8b8"/>
  <path d="M412.48389,145.38724v38.26267l-47.09,21.84c-.7425-6.94095-2.9625-11.354-6.25745-11.84383-18.89374-2.80893-30.79669-14.29724-39.67474-30.0517,6.60583-15.99746,4.771-34.00721-5.12571-53.14549l60.6-9.9,14.26-6.24Z" fill="#ffb8b8"/>
  <path d="M385.28674,128.26974l27.19715,17.11763-3.65576-82.03154,4.01107,0a29.56179,29.56179,0,0,1,29.1493,25.05569c2.05413,18.f48226-1.8348,55.09812-12.96659,56.6597-15.29663,2.14358-39.57528-8.5266-43.73607-16.80148Z" fill="#0abab5"/>
  <polygon points="558.13 130.603 489.822 336.606 510.097 346.966 601.217 158.68 558.13 130.603" fill="#e6e6e6"/>
  <polygon points="558.13 130.603 489.822 336.606 510.097 346.966 601.217 158.68 558.13 130.603" opacity="0.1"/>
  <polygon points="500.558 272.546 493.645 339.158 517.91 340.866 529.342 272.546 500.558 272.546" fill="#ffb8b8"/>
  <polygon points="398.408 492.274 408.687 557.992 437.471 551.079 423.584 491.122 398.408 492.274" fill="#ffb8b8"/>
  <polygon points="544.386 490.194 554.665 555.912 583.449 548.999 569.562 489.042 544.386 490.194" fill="#ffb8b8"/>
  <path d="M465.10337,353.75486l-9.1286,69.7901,108.64688-7.64813-14.25372-74.99153c-20.92132-.98541-42.51736-.23247-64.97534,5.96113Z" fill="#2f2e41"/>
  <path d="M413.56354,504.91364l8.00856,81.68766h33.18413l-.38137-38.45121,8.77064-43.23569-21.27471-106.37257H415.33472Z" fill="#2f2e41"/>
  <path d="M553.29856,500.2323l8.00859,81.68767h33.18412l-.38136-38.4512,8.77063-43.2357-21.27471-106.37257-26.5371,2.72336Z" fill="#2f2e41"/>
  <path d="M515.66119,206.13284l10.25583-6.83722,19.40326,10.25583,53.15894,133.32539L581.08482,487.49729c-39.93-3.41883-83.17017-10.25583-129.04976-21.6667l-19.40326-125.174,48.60309-138.46222Z" fill="#2f2e41"/>
  <circle cx="401.09193" cy="58.11432" r="28.31507" fill="#ffb8b8"/>
  <polygon points="370.8 59.372 369.749 90.435 401.851 99.625 411.062 60.423 370.8 59.372" fill="#ffb8b8"/>
  <path d="M467.97793,138.00842c-15.16427-.98538-29.7285-3.15662-43.7372-6.83722l-5.96113-23.84478,19.04115-10.78965-12.9889-10.9679-23.48267,8.28719c-14.95144-1.66827-26.29223-7.95093-34.22627-17.96638l22.09881-1.10952,5.39478-10.78957-50.32965-1.10952,5.39479-14.42407,40.06339,10.78965c27.40175-7.38307,38.8683,0,54.26841,19.4032l34.79261,104.51033C478.65467,170.43,478.70726,153.6865,467.97793,138.00842Z" fill="#2f2e41"/>
  <circle cx="361.6607" cy="17.38135" r="17.38135" fill="#2f2e41"/>
  <path d="M377.37787,33.34368A17.38136,17.38136,0,0,1,348.35873,20.1415a17.40039,17.40039,0,1,0,34.12914-6.7793,17.37594,17.37594,0,0,1-5.11,19.98188Z" fill="#2f2e41"/>
  <ellipse cx="394.25471" cy="58.11431" rx="26.2137" ry="19.4032" fill="#2f2e41"/>
  <path d="M403.46063,60.83767l-1.10953,39.65045S315.17738,177.36866,335.99,213.8926c20.81261,36.52392,101.78693,3.41883,101.78693,3.41883L444.8339,108.59485l-10.25584-48.60309Z" fill="#0abab5"/>
  <path d="M486.43642,278.7932l-14.25372-74.99153-20.33842,2.10335-4.36842,71.54639,23.70583-2.01546Z" fill="none"/>
  <polygon points="516.77 136.342 558.13 130.603 601.217 158.68 544.386 180.346 516.77 136.342" fill="#e6e6e6"/>
  <path d="M552.54678,172.898,547.1523,232.73454A10.22807,10.22807,0,0,0,553.43,243.902l86.5126,12.47535a10.42478,10.42478,0,0,0,11.77868-11.66109l-8.20405-56.8537a10.52279,10.52279,0,0,0-11.07554-9.19554l-69.047,5.23137A10.53213,10.53213,0,0,0,552.54678,172.898Z" fill="#3f3d56"/>
  <path d="M593.41073,189.02886a3.15641,3.15641,0,1,0,0,6.31282H624.9082a3.15641,3.15641,0,0,0,0-6.31282Z" fill="#fff"/>
  <path d="M593.41073,201.96743a3.15642,3.15642,0,0,0,0,6.31283H624.9082a3.15642,3.15642,0,0,0,0-6.31283Z" fill="#fff"/>
  <path d="M544.78919,166.83133a20.02959,20.02959,0,0,0,22.9465,22.84571l72.22041-5.47137a20.0046,20.0046,0,0,0,17.71123-29.42314Z" fill="#fff"/>
  <path d="M423.57118,113.61824l-44.75842-3.43607a4.95675,4.95675,0,0,0-5.32083,3.68608l-31.62369,124.01559a4.74621,4.74621,0,0,0,3.43606,5.76759l45.20518,6.87213a4.95258,4.95258,0,0,0,5.78557-3.20729l30.72994-126.93033A4.74175,4.74175,0,0,0,423.57118,113.61824Z" fill="#e6e6e6"/>
  <path d="M379.04164,125.161l.0003-.001a1.49993,1.49993,0,0,1,1.80932-1.12531l39.95734,8.88052a1.49992,1.49992,0,0,1,1.1253,1.80932l-2.07148,9.31349a1.49993,1.49993,0,0,1-1.80929,1.12534l-39.95733-8.88053a1.49991,1.49991,0,0,1-1.1253-1.80935Z" fill="#fff"/>
  <path d="M372.99578,163.09756l22.81082,4.1256a1.49992,1.49992,0,0,0,1.78192-1.17254l1.8194-10.0545a1.49985,1.49985,0,0,0-1.17254-1.78195l-22.81085-4.12558a1.49992,1.49992,0,0,0-1.78192,1.17254l-1.81937,10.05447a1.49987,1.49987,0,0,0,1.17254,1.782C372.989,163.09646,372.9924,163.09705,372.99578,163.09756Z" fill="#fff"/>
  <path d="M368.93763,185.29442l22.81082,4.12558a1.49989,1.49989,0,0,0,1.78192-1.17254l1.8194-10.05447a1.49985,1.49985,0,0,0-1.17254-1.78195l-22.81085-4.12561a1.49992,1.49992,0,0,0-1.78192,1.17254l-1.81937,10.0545a1.49987,1.49987,0,0,0,1.17254,1.78195Z" fill="#fff"/>
  <path d="M364.87944,207.49122,387.6903,211.6168a1.49992,1.49992,0,0,0,1.78192-1.17254l1.81944-10.05444a1.50016,1.50016,0,0,0-1.17258-1.782,1.47156,1.47156,0,0,0-.30472-.01925l-22.81084-4.12558a1.49988,1.49988,0,0,0-1.78192,1.17254l-1.81941,10.05447a1.49988,1.49988,0,0,0,1.17254,1.782C364.87264,207.49016,364.87607,207.49071,364.87944,207.49122Z" fill="#fff"/>
  <path d="M486.93117,303.31519l-102.387,14.15045a4.73744,4.73744,0,1,1-1.30586-9.3822l102.387-14.15045a4.73744,4.73744,0,0,1,1.30586,9.3822Z" fill="#3f3d56"/>
  <path d="M558.32933,293.11963l-144.26084,19.94109a4.73744,4.73744,0,1,1-1.30586-9.3822l144.26083-19.94109a4.73744,4.73744,0,0,1,1.30587,9.3822Z" fill="#3f3d56"/>
  <circle cx="524.32136" cy="311.00598" r="31.2479" fill="#0abab5" opacity="0.4"/>
  <circle cx="614.32136" cy="384.00598" r="22.2479" fill="#0abab5" opacity="0.4"/>
  <circle cx="498.32136" cy="393.00598" r="22.2479" fill="#0abab5" opacity="0.4"/>
  <circle cx="540.32136" cy="469.00598" r="22.2479" fill="#0abab5" opacity="0.4"/>
  <path d="M469.12635,376.64587a8.24621,8.24621,0,0,0-12.22292-4.85068L417.8299,340.70552l-5.42854,18.35791,37.16015,27.32164a8.28884,8.28884,0,0,0,19.56484-9.73945Z" fill="#ffb8b8"/>
  <path d="M358.54693,268.82935s-21.63855,2.70483-19.7834,32.45788c1.85516,29.75305,18.5516,79.29215,26.29418,79.29215,7.74258,0,94.73658-79.29215,94.73658-79.29215l-27.849-20.10644-44.91885,33.16225Z" fill="#2f2e41"/>
</svg> 